<?xml version="1.0" encoding="UTF-8" standalone="no"?>
<svg
   width="262.41809"
   height="298.40372"
   viewBox="0 0 262.41809 298.40372"
   version="1.1"
   id="svg4"
   sodipodi:docname="shopify.svg"
   inkscape:version="1.1.2 (0a00cf5339, 2022-02-04, custom)"
   xmlns:inkscape="http://www.inkscape.org/namespaces/inkscape"
   xmlns:sodipodi="http://sodipodi.sourceforge.net/DTD/sodipodi-0.dtd"
   xmlns="http://www.w3.org/2000/svg"
   xmlns:svg="http://www.w3.org/2000/svg">
  <defs
     id="defs8" />
  <sodipodi:namedview
     id="namedview6"
     pagecolor="#ffffff"
     bordercolor="#666666"
     borderopacity="1.0"
     inkscape:pageshadow="2"
     inkscape:pageopacity="0.0"
     inkscape:pagecheckerboard="0"
     showgrid="false"
     width="300px"
     fit-margin-top="0"
     fit-margin-left="0"
     fit-margin-right="0"
     fit-margin-bottom="0"
     inkscape:zoom="0.93576954"
     inkscape:cx="277.31187"
     inkscape:cy="-3.2059175"
     inkscape:window-width="1920"
     inkscape:window-height="1001"
     inkscape:window-x="0"
     inkscape:window-y="0"
     inkscape:window-maximized="1"
     inkscape:current-layer="svg4" />
  <path
     d="m 172.66385,298.16126 89.75424,-19.42422 c 0,0 -32.39545,-218.991022 -32.63791,-220.455065 -0.24245,-1.464043 -1.45471,-2.377904 -2.62035,-2.377904 -1.21227,0 -23.99353,-1.697172 -23.99353,-1.697172 0,0 -15.88067,-15.834047 -17.92287,-17.531218 -0.53153,-0.484906 -0.92319,-0.727359 -1.50134,-0.923186 L 172.37477,298.17058 Z M 127.59556,140.55747 c 0,0 -10.0991,-5.25004 -22.0539,-5.25004 -18.016121,0 -18.696855,11.21812 -18.696855,14.1835 0,15.30252 40.265855,21.31722 40.265855,57.55462 0,28.50688 -17.92288,46.71883 -42.354681,46.71883 -29.290189,0 -44.005222,-18.21195 -44.005222,-18.21195 l 8.010275,-25.93315 c 0,0 15.489017,13.26032 28.367003,13.26032 8.401929,0 12.141301,-6.75139 12.141301,-11.60977 0,-20.10495 -33.029561,-21.02814 -33.029561,-54.15095 -0.438281,-27.82615 19.526793,-54.93426 60.035095,-54.93426 15.63822,0 23.31279,4.46673 23.31279,4.46673 L 127.83802,140.4549 Z M 120.8908,10.294928 c 1.65055,0 3.34772,0.484906 4.99827,1.697171 -12.24388,5.781572 -25.64407,20.403354 -31.183192,49.637593 -8.159476,2.666983 -16.0765,5.054213 -23.461992,7.189664 C 77.659566,46.62558 93.241835,10.44413 120.88148,10.44413 Z m 15.34914,36.666356 v 1.697171 c -9.37174,2.862811 -19.72262,6.024025 -29.77509,9.129289 5.78157,-22.100525 16.56141,-32.880359 25.93315,-36.908809 2.3779,6.219852 3.83262,14.621782 3.83262,26.082349 z m 6.69544,-27.72357 c 8.59776,0.876561 14.1835,10.733209 17.72704,21.811447 -4.32685,1.408092 -9.12928,2.86281 -14.37933,4.513356 v -3.105264 c 0,-9.371741 -1.21226,-17.046312 -3.34771,-23.266164 z m 37.20721,16.02055 c -0.28908,0 -0.77398,0.242453 -0.96981,0.242453 -0.24245,0 -3.59017,0.923186 -8.88684,2.620357 C 165.0359,22.771933 155.66416,8.6443825 139.10276,8.6443825 h -1.45472 C 132.89223,2.6203576 127.06403,0 122.05644,0 83.441138,0 64.986733,48.2295 59.205162,72.70793 44.340927,77.221286 33.561093,80.578327 32.348827,81.063234 23.946898,83.730217 23.704445,83.981995 22.734633,91.889693 21.811446,97.62464 0,266.73562 0,266.73562 l 168.57945,31.66809 z"
     id="path2"
     style="stroke-width:9.32512" />
</svg>
